<?xml version="1.0"?>
<svg width="128" height="128" xmlns="http://www.w3.org/2000/svg" xmlns:svg="http://www.w3.org/2000/svg" data-name="Layer 1">
 <title>DOWNLOAD</title>
 <g class="layer">
  <title>Layer 1</title>
  <path d="m117.17,78.58l-12.16,0a1.75,1.75 0 0 0 -1.75,1.75l0,31.98l-78.52,0l0,-31.98a1.75,1.75 0 0 0 -1.75,-1.75l-12.16,0a1.75,1.75 0 0 0 -1.75,1.75l0,45.9a1.75,1.75 0 0 0 1.75,1.75l106.34,0a1.75,1.75 0 0 0 1.75,-1.75l0,-45.9a1.75,1.75 0 0 0 -1.75,-1.75zm-1.75,45.9l-102.84,0l0,-42.4l8.66,0l0,31.98a1.75,1.75 0 0 0 1.75,1.75l82.02,0a1.75,1.75 0 0 0 1.75,-1.75l0,-31.98l8.66,0l0,42.4z" fill="#ffffff" id="svg_1"/>
  <path d="m62.76,90.02a1.77,1.77 0 0 0 2.48,0l32.52,-32.53a1.77,1.77 0 0 0 0,-2.47l-8.6,-8.61a1.75,1.75 0 0 0 -2.47,0l-14.86,14.86l0,-59.54a1.75,1.75 0 0 0 -1.75,-1.75l-12.16,0a1.75,1.75 0 0 0 -1.75,1.75l0,59.54l-14.86,-14.86a1.75,1.75 0 0 0 -2.47,0l-8.6,8.6a1.77,1.77 0 0 0 0,2.48l32.52,32.53zm-22.68,-39.89l16.6,16.59a1.75,1.75 0 0 0 2.98,-1.23l0,-62.01l8.67,0l0,62.01a1.75,1.75 0 0 0 2.99,1.24l16.6,-16.6l6.13,6.12l-30.05,30.06l-30.05,-30.06l6.13,-6.12z" fill="#ffffff" id="svg_2" transform="matrix(1 0 0 1 0 0)"/>
 </g>
</svg>